0
SECTION
2
HEADER
9
$ACADVER
1
AC1009
9
$DWGCODEPAGE
3
ANSI_936
9
$INSBASE
10
0
20
0
30
0
9
$EXTMIN
10
-31.9
20
-33.5
30
0
9
$EXTMAX
10
102.5
20
35.5
30
0
9
$LIMMIN
10
-31.9
20
-33.5
9
$LIMMAX
10
102.5
20
35.5
9
$LTSCALE
40
1.0
9
$TEXTSIZE
40
2.5
9
$CLAYER
8
OUTLINE
0
ENDSEC
0
SECTION
2
TABLES
0
TABLE
2
LTYPE
70
1
0
LTYPE
2
CONTINUOUS
70
0
3
Solid line
72
65
73
0
40
0.0
0
ENDTAB
0
TABLE
2
LAYER
70
7
0
LAYER
2
0
70
0
62
7
6
CONTINUOUS
0
LAYER
2
OUTLINE
70
0
62
7
6
CONTINUOUS
0
LAYER
2
HOLES
70
0
62
1
6
CONTINUOUS
0
LAYER
2
PANEL
70
0
62
4
6
CONTINUOUS
0
LAYER
2
REF
70
0
62
8
6
CONTINUOUS
0
LAYER
2
DIM
70
0
62
3
6
CONTINUOUS
0
LAYER
2
TEXT
70
0
62
2
6
CONTINUOUS
0
ENDTAB
0
TABLE
2
STYLE
70
1
0
STYLE
2
STANDARD
70
0
40
0.0
41
1.0
50
0.0
71
0
42
2.5
3
txt.shx
4
gbcbig.shx
0
ENDTAB
0
TABLE
2
APPID
70
1
0
APPID
2
ACAD
70
0
1001
ACAD
0
ENDTAB
0
ENDSEC
0
SECTION
2
BLOCKS
0
ENDSEC
0
SECTION
2
ENTITIES
  0
LINE
  8
OUTLINE
 10
-9.675
 20
14.15
 30
0.0
 11
0
 21
14.15
 31
0.0
  0
ARC
  8
OUTLINE
 10
-9.675
 20
12.15
 30
0.0
 40
2
 50
90
 51
180
  0
LINE
  8
OUTLINE
 10
-11.675
 20
12.15
 30
0.0
 11
-11.675
 21
-12.15
 31
0.0
  0
ARC
  8
OUTLINE
 10
-9.675
 20
-12.15
 30
0.0
 40
2
 50
180
 51
270
  0
LINE
  8
OUTLINE
 10
-9.675
 20
-14.15
 30
0.0
 11
0
 21
-14.15
 31
0.0
  0
LINE
  8
OUTLINE
 10
0
 20
-14.5
 30
0.0
 11
40
 21
-14.5
 31
0.0
  0
ARC
  8
OUTLINE
 10
40
 20
-12.5
 30
0.0
 40
2
 50
270
 51
360
  0
LINE
  8
OUTLINE
 10
42
 20
-12.5
 30
0.0
 11
42
 21
12.5
 31
0.0
  0
ARC
  8
OUTLINE
 10
40
 20
12.5
 30
0.0
 40
2
 50
0
 51
90
  0
LINE
  8
OUTLINE
 10
40
 20
14.5
 30
0.0
 11
0
 21
14.5
 31
0.0
  0
LINE
  8
OUTLINE
 10
0
 20
-14.5
 30
0.0
 11
0
 21
14.5
 31
0.0
  0
LINE
  8
OUTLINE
 10
42
 20
10.6
 30
0.0
 11
48.4
 21
10.6
 31
0.0
  0
LINE
  8
OUTLINE
 10
48.4
 20
10.6
 30
0.0
 11
48.4
 21
1.6
 31
0.0
  0
LINE
  8
OUTLINE
 10
48.4
 20
1.6
 30
0.0
 11
42
 21
1.6
 31
0.0
  0
LINE
  8
PANEL
 10
8
 20
13
 30
0.0
 11
21
 21
13
 31
0.0
  0
LINE
  8
PANEL
 10
21
 20
13
 30
0.0
 11
23.6
 21
10.4
 31
0.0
  0
LINE
  8
PANEL
 10
23.6
 20
10.4
 30
0.0
 11
23.6
 21
-13
 31
0.0
  0
LINE
  8
PANEL
 10
23.6
 20
-13
 30
0.0
 11
8
 21
-13
 31
0.0
  0
LINE
  8
PANEL
 10
8
 20
-13
 30
0.0
 11
8
 21
13
 31
0.0
  0
CIRCLE
  8
HOLES
 10
3
 20
10
 30
0.0
 40
1.5
  0
LINE
  8
HOLES
 10
0.3
 20
10
 30
0.0
 11
5.7
 21
10
 31
0.0
  0
LINE
  8
HOLES
 10
3
 20
7.3
 30
0.0
 11
3
 21
12.7
 31
0.0
  0
CIRCLE
  8
HOLES
 10
3
 20
-10
 30
0.0
 40
1.5
  0
LINE
  8
HOLES
 10
0.3
 20
-10
 30
0.0
 11
5.7
 21
-10
 31
0.0
  0
LINE
  8
HOLES
 10
3
 20
-12.7
 30
0.0
 11
3
 21
-7.3
 31
0.0
  0
CIRCLE
  8
HOLES
 10
26.7
 20
0
 30
0.0
 40
1.5
  0
LINE
  8
HOLES
 10
24
 20
0
 30
0.0
 11
29.4
 21
0
 31
0.0
  0
LINE
  8
HOLES
 10
26.7
 20
-2.7
 30
0.0
 11
26.7
 21
2.7
 31
0.0
  0
CIRCLE
  8
HOLES
 10
4.5
 20
6
 30
0.0
 40
1
  0
LINE
  8
HOLES
 10
2.3
 20
6
 30
0.0
 11
6.7
 21
6
 31
0.0
  0
LINE
  8
HOLES
 10
4.5
 20
3.8
 30
0.0
 11
4.5
 21
8.2
 31
0.0
  0
CIRCLE
  8
HOLES
 10
4.5
 20
-6
 30
0.0
 40
1
  0
LINE
  8
HOLES
 10
2.3
 20
-6
 30
0.0
 11
6.7
 21
-6
 31
0.0
  0
LINE
  8
HOLES
 10
4.5
 20
-8.2
 30
0.0
 11
4.5
 21
-3.8
 31
0.0
  0
CIRCLE
  8
HOLES
 10
26.5
 20
6
 30
0.0
 40
1
  0
LINE
  8
HOLES
 10
24.3
 20
6
 30
0.0
 11
28.7
 21
6
 31
0.0
  0
LINE
  8
HOLES
 10
26.5
 20
3.8
 30
0.0
 11
26.5
 21
8.2
 31
0.0
  0
CIRCLE
  8
HOLES
 10
26.5
 20
-6
 30
0.0
 40
1
  0
LINE
  8
HOLES
 10
24.3
 20
-6
 30
0.0
 11
28.7
 21
-6
 31
0.0
  0
LINE
  8
HOLES
 10
26.5
 20
-8.2
 30
0.0
 11
26.5
 21
-3.8
 31
0.0
  0
CIRCLE
  8
REF
 10
40.4
 20
0.4
 30
0.0
 40
1.75
  0
LINE
  8
REF
 10
39.2
 20
0.4
 30
0.0
 11
41.6
 21
0.4
 31
0.0
  0
LINE
  8
REF
 10
40.4
 20
-0.8
 30
0.0
 11
40.4
 21
1.6
 31
0.0
  0
CIRCLE
  8
REF
 10
40.4
 20
-6.2
 30
0.0
 40
1.75
  0
LINE
  8
REF
 10
39.2
 20
-6.2
 30
0.0
 11
41.6
 21
-6.2
 31
0.0
  0
LINE
  8
REF
 10
40.4
 20
-7.4
 30
0.0
 11
40.4
 21
-5
 31
0.0
  0
CIRCLE
  8
REF
 10
42.25
 20
-9
 30
0.0
 40
1.8
  0
LINE
  8
DIM
 10
3
 20
12.1
 30
0.0
 11
3
 21
19.8
 31
0.0
  0
LINE
  8
DIM
 10
26.7
 20
2.1
 30
0.0
 11
26.7
 21
19.8
 31
0.0
  0
LINE
  8
DIM
 10
3
 20
17.6
 30
0.0
 11
26.7
 21
17.6
 31
0.0
  0
SOLID
  8
DIM
 10
3
 20
17.6
 30
0.0
 11
5.5
 21
16.9
 31
0.0
 12
5.5
 22
18.3
 32
0.0
 13
5.5
 23
18.3
 33
0.0
  0
SOLID
  8
DIM
 10
26.7
 20
17.6
 30
0.0
 11
24.2
 21
18.3
 31
0.0
 12
24.2
 22
16.9
 32
0.0
 13
24.2
 23
16.9
 33
0.0
  0
TEXT
  8
TEXT
 10
11.75
 20
18.5
 30
0.0
 40
2.5
  1
23.7
 50
0
  7
STANDARD
  0
LINE
  8
DIM
 10
0
 20
15.1
 30
0.0
 11
0
 21
19.8
 31
0.0
  0
LINE
  8
DIM
 10
3
 20
12.1
 30
0.0
 11
3
 21
19.8
 31
0.0
  0
LINE
  8
DIM
 10
-3.7
 20
17.6
 30
0.0
 11
6.7
 21
17.6
 31
0.0
  0
SOLID
  8
DIM
 10
0
 20
17.6
 30
0.0
 11
-2.5
 21
18.3
 31
0.0
 12
-2.5
 22
16.9
 32
0.0
 13
-2.5
 23
16.9
 33
0.0
  0
SOLID
  8
DIM
 10
3
 20
17.6
 30
0.0
 11
5.5
 21
16.9
 31
0.0
 12
5.5
 22
18.3
 32
0.0
 13
5.5
 23
18.3
 33
0.0
  0
TEXT
  8
TEXT
 10
3.6
 20
18.5
 30
0.0
 40
2.5
  1
3
 50
0
  7
STANDARD
  0
LINE
  8
DIM
 10
0
 20
15.1
 30
0.0
 11
0
 21
23.7
 31
0.0
  0
LINE
  8
DIM
 10
42
 20
13.1
 30
0.0
 11
42
 21
23.7
 31
0.0
  0
LINE
  8
DIM
 10
0
 20
21.5
 30
0.0
 11
42
 21
21.5
 31
0.0
  0
SOLID
  8
DIM
 10
0
 20
21.5
 30
0.0
 11
2.5
 21
20.8
 31
0.0
 12
2.5
 22
22.2
 32
0.0
 13
2.5
 23
22.2
 33
0.0
  0
SOLID
  8
DIM
 10
42
 20
21.5
 30
0.0
 11
39.5
 21
22.2
 31
0.0
 12
39.5
 22
20.8
 32
0.0
 13
39.5
 23
20.8
 33
0.0
  0
TEXT
  8
TEXT
 10
19.45
 20
22.4
 30
0.0
 40
2.5
  1
42
 50
0
  7
STANDARD
  0
LINE
  8
DIM
 10
-11.675
 20
-12.75
 30
0.0
 11
-11.675
 21
-20
 31
0.0
  0
LINE
  8
DIM
 10
0
 20
-14.75
 30
0.0
 11
0
 21
-20
 31
0.0
  0
LINE
  8
DIM
 10
-11.675
 20
-17.8
 30
0.0
 11
0
 21
-17.8
 31
0.0
  0
SOLID
  8
DIM
 10
-11.675
 20
-17.8
 30
0.0
 11
-9.175
 21
-18.5
 31
0.0
 12
-9.175
 22
-17.1
 32
0.0
 13
-9.175
 23
-17.1
 33
0.0
  0
SOLID
  8
DIM
 10
0
 20
-17.8
 30
0.0
 11
-2.5
 21
-17.1
 31
0.0
 12
-2.5
 22
-18.5
 32
0.0
 13
-2.5
 23
-18.5
 33
0.0
  0
TEXT
  8
TEXT
 10
-10.4875
 20
-21.2
 30
0.0
 40
2.5
  1
11.675
 50
0
  7
STANDARD
  0
LINE
  8
DIM
 10
0
 20
-15.1
 30
0.0
 11
0
 21
-23.4
 31
0.0
  0
LINE
  8
DIM
 10
4.5
 20
-7.6
 30
0.0
 11
4.5
 21
-23.4
 31
0.0
  0
LINE
  8
DIM
 10
-3.7
 20
-21.2
 30
0.0
 11
8.2
 21
-21.2
 31
0.0
  0
SOLID
  8
DIM
 10
0
 20
-21.2
 30
0.0
 11
-2.5
 21
-20.5
 31
0.0
 12
-2.5
 22
-21.9
 32
0.0
 13
-2.5
 23
-21.9
 33
0.0
  0
SOLID
  8
DIM
 10
4.5
 20
-21.2
 30
0.0
 11
7
 21
-21.9
 31
0.0
 12
7
 22
-20.5
 32
0.0
 13
7
 23
-20.5
 33
0.0
  0
TEXT
  8
TEXT
 10
5.1
 20
-24.6
 30
0.0
 40
2.5
  1
4.5
 50
0
  7
STANDARD
  0
LINE
  8
DIM
 10
4.5
 20
-7.6
 30
0.0
 11
4.5
 21
-23.4
 31
0.0
  0
LINE
  8
DIM
 10
26.5
 20
-7.6
 30
0.0
 11
26.5
 21
-23.4
 31
0.0
  0
LINE
  8
DIM
 10
4.5
 20
-21.2
 30
0.0
 11
26.5
 21
-21.2
 31
0.0
  0
SOLID
  8
DIM
 10
4.5
 20
-21.2
 30
0.0
 11
7
 21
-21.9
 31
0.0
 12
7
 22
-20.5
 32
0.0
 13
7
 23
-20.5
 33
0.0
  0
SOLID
  8
DIM
 10
26.5
 20
-21.2
 30
0.0
 11
24
 21
-20.5
 31
0.0
 12
24
 22
-21.9
 32
0.0
 13
24
 23
-21.9
 33
0.0
  0
TEXT
  8
TEXT
 10
13.95
 20
-24.6
 30
0.0
 40
2.5
  1
22
 50
0
  7
STANDARD
  0
LINE
  8
DIM
 10
0.9
 20
-10
 30
0.0
 11
-18.7
 21
-10
 31
0.0
  0
LINE
  8
DIM
 10
0.9
 20
10
 30
0.0
 11
-18.7
 21
10
 31
0.0
  0
LINE
  8
DIM
 10
-16.5
 20
-10
 30
0.0
 11
-16.5
 21
10
 31
0.0
  0
SOLID
  8
DIM
 10
-16.5
 20
-10
 30
0.0
 11
-15.8
 21
-7.5
 31
0.0
 12
-17.2
 22
-7.5
 32
0.0
 13
-17.2
 23
-7.5
 33
0.0
  0
SOLID
  8
DIM
 10
-16.5
 20
10
 30
0.0
 11
-17.2
 21
7.5
 31
0.0
 12
-15.8
 22
7.5
 32
0.0
 13
-15.8
 23
7.5
 33
0.0
  0
TEXT
  8
TEXT
 10
-19.9
 20
-1.55
 30
0.0
 40
2.5
  1
20
 50
90
  7
STANDARD
  0
LINE
  8
DIM
 10
2.9
 20
-6
 30
0.0
 11
-15.7
 21
-6
 31
0.0
  0
LINE
  8
DIM
 10
2.9
 20
6
 30
0.0
 11
-15.7
 21
6
 31
0.0
  0
LINE
  8
DIM
 10
-13.5
 20
-6
 30
0.0
 11
-13.5
 21
6
 31
0.0
  0
SOLID
  8
DIM
 10
-13.5
 20
-6
 30
0.0
 11
-12.8
 21
-3.5
 31
0.0
 12
-14.2
 22
-3.5
 32
0.0
 13
-14.2
 23
-3.5
 33
0.0
  0
SOLID
  8
DIM
 10
-13.5
 20
6
 30
0.0
 11
-14.2
 21
3.5
 31
0.0
 12
-12.8
 22
3.5
 32
0.0
 13
-12.8
 23
3.5
 33
0.0
  0
TEXT
  8
TEXT
 10
-16.9
 20
-1.55
 30
0.0
 40
2.5
  1
12
 50
90
  7
STANDARD
  0
LINE
  8
DIM
 10
-0.6
 20
-14.5
 30
0.0
 11
-25.7
 21
-14.5
 31
0.0
  0
LINE
  8
DIM
 10
-0.6
 20
14.5
 30
0.0
 11
-25.7
 21
14.5
 31
0.0
  0
LINE
  8
DIM
 10
-23.5
 20
-14.5
 30
0.0
 11
-23.5
 21
14.5
 31
0.0
  0
SOLID
  8
DIM
 10
-23.5
 20
-14.5
 30
0.0
 11
-22.8
 21
-12
 31
0.0
 12
-24.2
 22
-12
 32
0.0
 13
-24.2
 23
-12
 33
0.0
  0
SOLID
  8
DIM
 10
-23.5
 20
14.5
 30
0.0
 11
-24.2
 21
12
 31
0.0
 12
-22.8
 22
12
 32
0.0
 13
-22.8
 23
12
 33
0.0
  0
TEXT
  8
TEXT
 10
-26.9
 20
-1.55
 30
0.0
 40
2.5
  1
29
 50
90
  7
STANDARD
  0
LINE
  8
TEXT
 10
30.5
 20
-14
 30
0.0
 11
26.95
 21
-6.89
 31
0.0
  0
SOLID
  8
TEXT
 10
26.95
 20
-6.89
 30
0.0
 11
27.4405
 21
-9.4394
 31
0.0
 12
28.6931
 22
-8.814
 32
0.0
 13
28.6931
 23
-8.814
 33
0.0
  0
TEXT
  8
TEXT
 10
31
 20
-15.2
 30
0.0
 40
3
  1
4-M2 深3
 50
0
  7
STANDARD
  0
LINE
  8
TEXT
 10
30.5
 20
-19
 30
0.0
 11
26.99
 21
-1.47
 31
0.0
  0
SOLID
  8
TEXT
 10
26.99
 20
-1.47
 30
0.0
 11
26.7945
 21
-4.0588
 31
0.0
 12
28.1672
 22
-3.7839
 32
0.0
 13
28.1672
 23
-3.7839
 33
0.0
  0
TEXT
  8
TEXT
 10
31
 20
-20.2
 30
0.0
 40
3
  1
3-M3 深3
 50
0
  7
STANDARD
  0
TEXT
  8
TEXT
 10
6
 20
-28.5
 30
0.0
 40
3.5
  1
主安装面
 50
0
  7
STANDARD
  0
LINE
  8
OUTLINE
 10
67.5
 20
14.5
 30
0.0
 11
92.5
 21
14.5
 31
0.0
  0
ARC
  8
OUTLINE
 10
92.5
 20
12.5
 30
0.0
 40
2
 50
0
 51
90
  0
LINE
  8
OUTLINE
 10
94.5
 20
12.5
 30
0.0
 11
94.5
 21
-12.5
 31
0.0
  0
ARC
  8
OUTLINE
 10
92.5
 20
-12.5
 30
0.0
 40
2
 50
270
 51
360
  0
LINE
  8
OUTLINE
 10
92.5
 20
-14.5
 30
0.0
 11
67.5
 21
-14.5
 31
0.0
  0
ARC
  8
OUTLINE
 10
67.5
 20
-12.5
 30
0.0
 40
2
 50
180
 51
270
  0
LINE
  8
OUTLINE
 10
65.5
 20
-12.5
 30
0.0
 11
65.5
 21
12.5
 31
0.0
  0
ARC
  8
OUTLINE
 10
67.5
 20
12.5
 30
0.0
 40
2
 50
90
 51
180
  0
CIRCLE
  8
HOLES
 10
71.85
 20
6.05
 30
0.0
 40
1
  0
LINE
  8
HOLES
 10
69.65
 20
6.05
 30
0.0
 11
74.05
 21
6.05
 31
0.0
  0
LINE
  8
HOLES
 10
71.85
 20
3.85
 30
0.0
 11
71.85
 21
8.25
 31
0.0
  0
CIRCLE
  8
HOLES
 10
91.85
 20
6.05
 30
0.0
 40
1
  0
LINE
  8
HOLES
 10
89.65
 20
6.05
 30
0.0
 11
94.05
 21
6.05
 31
0.0
  0
LINE
  8
HOLES
 10
91.85
 20
3.85
 30
0.0
 11
91.85
 21
8.25
 31
0.0
  0
LINE
  8
REF
 10
73.42
 20
1.45
 30
0.0
 11
90.32
 21
1.45
 31
0.0
  0
LINE
  8
REF
 10
90.32
 20
1.45
 30
0.0
 11
90.32
 21
12.66
 31
0.0
  0
LINE
  8
REF
 10
90.32
 20
12.66
 30
0.0
 11
73.42
 21
12.66
 31
0.0
  0
LINE
  8
REF
 10
73.42
 20
12.66
 30
0.0
 11
73.42
 21
1.45
 31
0.0
  0
CIRCLE
  8
REF
 10
73.6
 20
-7.3
 30
0.0
 40
4.75
  0
CIRCLE
  8
REF
 10
73.6
 20
-7.3
 30
0.0
 40
2.1
  0
CIRCLE
  8
REF
 10
88.4
 20
-8.3
 30
0.0
 40
1.5
  0
LINE
  8
DIM
 10
71.85
 20
7.65
 30
0.0
 11
71.85
 21
20
 31
0.0
  0
LINE
  8
DIM
 10
91.85
 20
7.65
 30
0.0
 11
91.85
 21
20
 31
0.0
  0
LINE
  8
DIM
 10
71.85
 20
17.8
 30
0.0
 11
91.85
 21
17.8
 31
0.0
  0
SOLID
  8
DIM
 10
71.85
 20
17.8
 30
0.0
 11
74.35
 21
17.1
 31
0.0
 12
74.35
 22
18.5
 32
0.0
 13
74.35
 23
18.5
 33
0.0
  0
SOLID
  8
DIM
 10
91.85
 20
17.8
 30
0.0
 11
89.35
 21
18.5
 31
0.0
 12
89.35
 22
17.1
 32
0.0
 13
89.35
 23
17.1
 33
0.0
  0
TEXT
  8
TEXT
 10
80.3
 20
18.7
 30
0.0
 40
2.5
  1
20
 50
0
  7
STANDARD
  0
LINE
  8
DIM
 10
67.5
 20
-13.1
 30
0.0
 11
67.5
 21
-20
 31
0.0
  0
LINE
  8
DIM
 10
92.5
 20
-13.1
 30
0.0
 11
92.5
 21
-20
 31
0.0
  0
LINE
  8
DIM
 10
67.5
 20
-17.8
 30
0.0
 11
92.5
 21
-17.8
 31
0.0
  0
SOLID
  8
DIM
 10
67.5
 20
-17.8
 30
0.0
 11
70
 21
-18.5
 31
0.0
 12
70
 22
-17.1
 32
0.0
 13
70
 23
-17.1
 33
0.0
  0
SOLID
  8
DIM
 10
92.5
 20
-17.8
 30
0.0
 11
90
 21
-17.1
 31
0.0
 12
90
 22
-18.5
 32
0.0
 13
90
 23
-18.5
 33
0.0
  0
TEXT
  8
TEXT
 10
78.45
 20
-21.2
 30
0.0
 40
2.5
  1
29
 50
0
  7
STANDARD
  0
LINE
  8
DIM
 10
66.9
 20
-14.5
 30
0.0
 11
60
 21
-14.5
 31
0.0
  0
LINE
  8
DIM
 10
66.9
 20
14.5
 30
0.0
 11
60
 21
14.5
 31
0.0
  0
LINE
  8
DIM
 10
62.2
 20
-14.5
 30
0.0
 11
62.2
 21
14.5
 31
0.0
  0
SOLID
  8
DIM
 10
62.2
 20
-14.5
 30
0.0
 11
62.9
 21
-12
 31
0.0
 12
61.5
 22
-12
 32
0.0
 13
61.5
 23
-12
 33
0.0
  0
SOLID
  8
DIM
 10
62.2
 20
14.5
 30
0.0
 11
61.5
 21
12
 31
0.0
 12
62.9
 22
12
 32
0.0
 13
62.9
 23
12
 33
0.0
  0
TEXT
  8
TEXT
 10
58.8
 20
-1.55
 30
0.0
 40
2.5
  1
29
 50
90
  7
STANDARD
  0
LINE
  8
TEXT
 10
97
 20
16.5
 30
0.0
 11
92.29
 21
6.94
 31
0.0
  0
SOLID
  8
TEXT
 10
92.29
 20
6.94
 30
0.0
 11
94.0228
 21
8.8732
 31
0.0
 12
92.767
 22
9.492
 32
0.0
 13
92.767
 23
9.492
 33
0.0
  0
TEXT
  8
TEXT
 10
97.5
 20
17.2
 30
0.0
 40
3
  1
2-M2 深3
 50
0
  7
STANDARD
  0
TEXT
  8
TEXT
 10
82
 20
-28.5
 30
0.0
 40
3.5
  1
后面板
 50
0
  7
STANDARD
  0
TEXT
  8
TEXT
 10
-21
 20
30.5
 30
0.0
 40
4.5
  1
工业相机安装接口图
 50
0
  7
STANDARD
  0
TEXT
  8
TEXT
 10
-21
 20
25.8
 30
0.0
 40
2.8
  1
单位: mm   比例 1:1   红色=螺纹安装孔(φ为螺纹大径)   灰色=非安装特征参考
 50
0
  7
STANDARD
0
ENDSEC
0
EOF
